<?xml version="1.0" standalone="no"?>
<!DOCTYPE svg PUBLIC "-//W3C//DTD SVG 20010904//EN"
 "http://www.w3.org/TR/2001/REC-SVG-20010904/DTD/svg10.dtd">
<svg version="1.0" xmlns="http://www.w3.org/2000/svg"
 width="186.000000pt" height="186.000000pt" viewBox="0 0 186.000000 186.000000"
 preserveAspectRatio="xMidYMid meet">
<metadata>
Created by potrace 1.14, written by Peter Selinger 2001-2017
</metadata>
<g transform="translate(0.000000,186.000000) scale(0.100000,-0.100000)"
fill="#000000" stroke="none">
<path d="M770 1826 c-326 -61 -585 -287 -693 -606 -33 -99 -38 -124 -42 -260
-16 -463 302 -846 770 -926 50 -9 217 -9 270 0 103 17 202 52 305 108 41 23
77 44 80 47 3 3 31 25 63 49 44 33 65 57 87 103 l28 59 -29 -20 c-15 -12 -31
-25 -34 -30 -3 -5 -15 1 -28 13 -12 12 -33 29 -45 37 -21 14 -24 25 -29 100
-7 116 -16 117 -12 2 3 -58 0 -91 -6 -89 -6 2 -10 49 -10 113 0 101 2 113 29
166 28 55 54 77 75 63 30 -18 122 -159 136 -207 2 -5 3 -11 5 -15 6 -25 18 58
14 101 -4 42 -11 57 -40 84 -29 27 -31 32 -14 27 13 -4 28 -8 34 -9 18 -3 59
-27 89 -52 49 -41 50 -26 4 39 -52 71 -95 94 -153 78 -19 -5 -34 -8 -34 -6 0
9 50 30 110 45 l65 17 -40 11 c-22 7 -56 12 -75 12 l-35 0 53 37 c56 40 54 56
-7 42 -20 -5 -38 -9 -41 -9 -20 -2 -54 -48 -70 -91 l-18 -52 -20 39 c-33 64
-97 87 -181 64 -52 -14 -52 -26 0 -34 41 -7 129 -42 129 -52 0 -3 -15 -2 -34
1 -42 8 -67 -4 -128 -63 -39 -37 -48 -42 -48 -27 0 39 -99 244 -122 253 -4 2
-8 9 -8 16 0 9 13 12 43 10 75 -5 171 -27 190 -42 9 -9 20 -12 23 -9 4 4 19
-2 33 -12 14 -10 37 -22 50 -26 l23 -7 -18 32 c-27 46 -115 123 -161 141 -37
15 -45 15 -109 -1 -38 -10 -70 -17 -72 -15 -2 1 17 13 42 25 25 12 48 26 52
31 3 5 14 9 25 9 11 0 27 7 35 15 10 9 25 13 39 9 12 -3 26 -1 29 5 4 6 24 11
44 12 20 0 46 4 57 8 16 7 6 13 -49 30 -78 24 -162 27 -210 7 -37 -15 -87 -72
-114 -130 l-19 -39 -6 51 c-8 71 -33 119 -76 147 -41 27 -151 58 -190 53 -24
-3 -23 -5 22 -31 26 -15 47 -32 47 -37 0 -6 8 -10 19 -10 10 0 26 -11 34 -24
l16 -23 -67 -6 c-100 -8 -175 -35 -119 -43 7 0 36 -4 64 -8 29 -4 86 -23 125
-42 40 -20 62 -33 48 -29 -94 23 -168 12 -219 -31 -28 -23 -100 -129 -114
-167 -6 -16 -4 -16 23 -2 17 9 36 24 43 35 6 11 19 20 28 20 9 0 24 9 34 20
10 11 20 18 23 15 3 -2 17 2 31 10 29 16 109 39 95 27 -5 -5 -26 -21 -48 -36
-53 -39 -66 -77 -66 -191 l0 -96 -32 3 c-18 1 -58 -4 -88 -11 -31 -7 -79 -12
-108 -10 -29 2 -52 2 -53 -1 -5 -53 -11 -98 -15 -109 -7 -23 -41 25 -89 124
-56 116 -75 198 -76 325 -1 101 8 161 37 248 83 250 248 417 501 505 79 27
102 30 230 33 77 2 156 -1 174 -6 48 -14 23 3 -41 29 -120 47 -329 63 -470 37z
m386 -943 c43 -89 53 -168 44 -343 -3 -57 -13 -80 -36 -80 -8 0 -11 8 -8 23
23 98 26 178 10 254 -15 76 -72 223 -94 245 -6 6 5 -26 25 -72 68 -159 86
-301 49 -406 l-13 -39 -13 88 c-12 78 -16 88 -32 84 -10 -3 -18 -2 -18 1 0 4
-24 6 -52 6 -29 -1 -61 2 -70 7 -24 13 -79 17 -104 8 l-22 -8 20 52 c11 29 22
61 26 72 15 53 135 203 176 221 29 12 32 12 54 -14 13 -15 39 -59 58 -99z
m334 -119 c0 -3 -8 -18 -18 -32 -26 -37 -59 -111 -66 -147 -14 -66 -15 -78
-17 -131 -1 -30 -6 -57 -10 -60 -5 -3 -26 7 -48 22 -43 28 -47 38 -56 149 -4
39 -8 87 -11 107 -5 36 -4 37 53 65 39 19 76 29 116 30 31 2 57 0 57 -3z
m-770 -134 c-34 -11 -60 -11 -35 0 11 5 29 8 40 8 16 0 15 -2 -5 -8z m225 0
c12 -5 -4 -6 -40 -3 -33 3 -62 7 -64 9 -9 8 85 2 104 -6z m-290 -15 c6 -2 -11
-4 -37 -4 -27 -1 -48 3 -48 7 0 7 62 5 85 -3z m400 5 c-3 -5 -25 -9 -48 -8
l-42 1 45 7 c25 4 46 8 48 8 2 1 0 -2 -3 -8z m33 -41 c-3 -20 -5 -19 -9 9 -3
20 -2 29 4 23 5 -5 7 -19 5 -32z m-491 15 c-3 -3 -12 -4 -19 -1 -8 3 -5 6 6 6
11 1 17 -2 13 -5z m456 -1 c-7 -2 -19 -2 -25 0 -7 3 -2 5 12 5 14 0 19 -2 13
-5z m-466 -19 c-3 -3 -12 -4 -19 -1 -8 3 -5 6 6 6 11 1 17 -2 13 -5z m468 -24
c-3 -5 -14 -10 -23 -9 -14 0 -13 2 3 9 27 11 27 11 20 0z m-518 -32 c-3 -7 -5
-2 -5 12 0 14 2 19 5 13 2 -7 2 -19 0 -25z m560 10 c-3 -8 -6 -5 -6 6 -1 11 2
17 5 13 3 -3 4 -12 1 -19z m-40 -4 c-3 -3 -12 -4 -19 -1 -8 3 -5 6 6 6 11 1
17 -2 13 -5z m10 -20 c-3 -3 -12 -4 -19 -1 -8 3 -5 6 6 6 11 1 17 -2 13 -5z
m40 -46 c-3 -8 -6 -5 -6 6 -1 11 2 17 5 13 3 -3 4 -12 1 -19z m-50 -4 c-3 -3
-12 -4 -19 -1 -8 3 -5 6 6 6 11 1 17 -2 13 -5z"/>
<path d="M986 853 c-11 -11 -6 -23 9 -23 8 0 15 4 15 9 0 13 -16 22 -24 14z"/>
<path d="M1067 833 c-7 -11 4 -27 21 -31 8 -1 12 4 10 14 -3 19 -23 30 -31 17z"/>
<path d="M983 723 c-16 -6 -5 -33 13 -33 8 0 14 6 14 14 0 18 -11 25 -27 19z"/>
<path d="M1026 1455 c4 -8 7 -15 9 -15 1 0 8 7 15 15 10 13 9 15 -8 15 -15 0
-20 -5 -16 -15z"/>
<path d="M804 1432 c-18 -11 -12 -38 8 -38 10 0 18 7 18 18 0 20 -12 29 -26
20z"/>
<path d="M1306 1394 c-8 -20 0 -32 14 -18 5 5 5 15 1 22 -6 11 -10 10 -15 -4z"/>
<path d="M1045 1360 c-4 -7 -1 -16 6 -21 17 -10 26 8 11 23 -6 6 -12 6 -17 -2z"/>
<path d="M615 1320 c-4 -7 -1 -16 6 -21 17 -10 26 8 11 23 -6 6 -12 6 -17 -2z"/>
<path d="M1390 1265 c0 -9 5 -15 11 -13 6 2 11 8 11 13 0 5 -5 11 -11 13 -6 2
-11 -4 -11 -13z"/>
<path d="M1046 1245 c4 -8 10 -15 14 -15 4 0 10 7 14 15 4 10 -1 15 -14 15
-13 0 -18 -5 -14 -15z"/>
<path d="M470 1225 c0 -8 9 -15 20 -15 11 0 20 7 20 15 0 8 -9 15 -20 15 -11
0 -20 -7 -20 -15z"/>
<path d="M586 1123 c-9 -9 -7 -33 3 -33 12 0 22 28 12 34 -5 3 -11 3 -15 -1z"/>
<path d="M1433 1123 c-15 -5 -5 -33 12 -33 7 0 15 6 18 14 6 15 -10 26 -30 19z"/>
<path d="M701 1081 c-10 -7 -10 -10 -1 -16 6 -4 16 -3 22 3 13 13 -4 23 -21
13z"/>
<path d="M1519 1018 c-7 -33 -6 -39 9 -36 20 4 23 29 5 36 -7 2 -13 2 -14 0z"/>
<path d="M486 933 c-11 -11 -6 -23 9 -23 8 0 15 4 15 9 0 13 -16 22 -24 14z"/>
<path d="M543 783 c-15 -5 -5 -33 12 -33 7 0 15 6 18 14 6 15 -10 26 -30 19z"/>
<path d="M706 723 c-11 -12 -6 -33 8 -33 19 0 28 27 11 33 -7 3 -16 3 -19 0z"/>
<path d="M491 701 c-10 -6 -9 -12 4 -25 21 -20 20 -20 22 4 2 23 -8 32 -26 21z"/>
<path d="M1495 699 c-4 -6 -5 -12 -2 -15 2 -3 7 2 10 11 7 17 1 20 -8 4z"/>
<path d="M1472 645 c-7 -14 -12 -31 -12 -38 1 -7 7 3 16 22 17 39 13 54 -4 16z"/>
</g>
</svg>
